<svg width="1921" height="625" viewBox="0 0 1921 625" fill="none" xmlns="http://www.w3.org/2000/svg">
<path d="M0 641.5H1920.98C1920.98 641.5 1920.98 588.701 1921.98 392.482C1922.98 196.262 1806.86 14.4126 1460.99 14.4126C1115.11 14.4126 1146.54 83.8295 896.962 83.8295C647.385 83.8295 654.539 -7.28564 386.996 1.03735C119.454 9.36035 0 127.05 0 269.204C0 411.358 0 641.5 0 641.5Z" fill="url(#paint0_linear_1_2043)"/>
<ellipse opacity="0.171247" cx="1081" cy="649" rx="564" ry="251.693" transform="rotate(-12 1081 649)" fill="url(#paint1_linear_1_2043)"/>
<ellipse opacity="0.171247" cx="715.5" cy="637.278" rx="413.5" ry="211.499" fill="url(#paint2_linear_1_2043)"/>
<ellipse opacity="0.171247" cx="302.389" cy="613.042" rx="515.389" ry="234.042" fill="url(#paint3_linear_1_2043)"/>
<path opacity="0.152901" fill-rule="evenodd" clip-rule="evenodd" d="M1720.64 159.808C1659.13 204.831 1598.85 301.87 1558 378C1571.97 363.23 1587.38 349.881 1604.01 338.15C1682.53 282.937 1782.6 267.869 1874 297.499C1851.84 250.509 1781.21 115.478 1720.64 159.808ZM1972 537.548C1971.96 532.896 1971.31 528.269 1970.06 523.786C1968.92 519.661 1967.64 515.609 1966.18 511.667C1946.88 459.052 1899.81 421.507 1844.08 414.264C1788.34 407.021 1733.19 431.283 1701 477.207C1730.38 465.74 1763.22 467.01 1791.62 480.71C1820.01 494.41 1841.39 519.298 1850.58 549.375C1850.91 550.434 1851.21 551.529 1851.46 552.624C1851.72 553.719 1852.05 554.814 1852.38 555.873C1857.8 573.089 1870.57 587.038 1887.28 593.982C1893.95 596.697 1901.1 598.062 1908.31 597.998H1913.29C1920.53 598.049 1927.71 596.672 1934.42 593.946C1957.19 584.451 1972.01 562.255 1972 537.657V537.548ZM1505.53 503.6C1548.05 388.992 1657.55 312.941 1779.96 313C1905.34 313.005 2016.77 392.784 2057 511.345C2012.02 426.413 1921.25 375.802 1825.24 382.114C1729.22 388.427 1645.88 450.485 1612.45 540.572C1611.55 544.649 1610.19 548.608 1608.38 552.373C1597.04 576.435 1570.5 589.423 1544.51 583.631C1518.51 577.838 1500.02 554.817 1500 528.224C1500.01 524.133 1500.45 520.055 1501.32 516.058C1502.23 511.756 1503.64 507.574 1505.53 503.6Z" fill="url(#paint4_linear_1_2043)"/>
<g style="mix-blend-mode:luminosity">
<path fill-rule="evenodd" clip-rule="evenodd" d="M313.422 569.635C300.296 569.27 287.099 572.938 275.996 579.943C281.134 573.32 286.023 566.504 290.656 559.52C295.701 558.642 315.451 554.611 323.552 544.14C312.62 544.24 304.367 546.582 292.114 557.316C297.415 549.188 302.366 540.833 306.951 532.286C316.195 531.928 329.244 523.509 336.09 515.975C322.788 515.851 311.434 526.816 307.716 530.842C312.302 522.193 316.515 513.35 320.336 504.343C330.294 503.997 339.972 498.651 345.514 490.354C335.438 489.109 324.797 498.894 320.99 502.804C322.971 498.068 324.842 493.288 326.603 488.468C329.549 485.468 340.042 473.419 333.48 459.792C331.78 464.819 328.478 469.131 326.252 473.949C324.059 478.694 323.039 484.547 325.749 488.991C323.673 494.442 321.449 499.835 319.093 505.17C319.777 495.673 319.208 485.694 312.359 478.03C308.288 491.388 316.476 503.754 318.498 506.526C315.017 514.314 311.234 521.963 307.177 529.463C308.964 518.226 306.482 505.741 300.107 496.392C292.709 510.912 304.258 527.654 306.51 530.691C302.033 538.881 297.22 546.883 292.089 554.673C294.073 542.479 292.412 529.705 287.337 518.439C278.73 537.761 288.394 552.759 291.02 556.295C284.666 565.821 277.828 575.019 270.545 583.845C275.858 567.759 277.131 550.798 272.398 534.502C260.649 551.076 268.391 579.895 269.808 584.727C264.135 591.554 258.198 598.158 252.001 604.508L253.558 606.013C260.541 598.698 267.182 591.064 273.472 583.153L274.855 583.202C288.648 582.467 302.203 577.698 313.422 569.635Z" fill="#782540"/>
<path fill-rule="evenodd" clip-rule="evenodd" d="M157.952 571.058C170.757 568.148 184.415 569.183 196.665 573.899C190.34 568.399 184.222 562.663 178.323 556.711C173.205 556.83 153.048 556.714 143.07 548.015C153.813 545.988 162.364 546.685 176.465 554.833C169.688 547.89 163.211 540.656 157.055 533.163C147.918 534.607 133.484 528.883 125.306 522.822C138.332 520.117 151.596 528.666 156.025 531.893C149.848 524.301 144 516.444 138.505 508.351C128.67 509.946 118.138 506.582 111.093 499.52C120.735 496.34 133.072 503.872 137.565 506.968C134.704 502.708 131.941 498.38 129.277 493.994C125.805 491.625 113.174 481.843 116.969 467.202C119.612 471.801 123.688 475.391 126.804 479.683C129.878 483.913 132.013 489.457 130.217 494.342C133.311 499.287 136.538 504.145 139.884 508.92C137.371 499.738 135.995 489.838 141.225 480.989C147.81 493.301 142.176 507.024 140.733 510.134C145.656 517.098 150.852 523.867 156.287 530.436C152.353 519.76 152.367 507.031 156.807 496.62C166.881 509.428 158.798 528.095 157.179 531.511C163.158 538.675 169.432 545.591 175.978 552.235C171.665 540.659 170.817 527.805 173.61 515.769C185.801 533.049 179.23 549.64 177.34 553.62C185.421 561.729 193.912 569.424 202.77 576.667C194.436 561.919 189.899 545.527 191.38 528.622C206.122 542.598 204.116 572.373 203.663 577.389C210.553 582.984 217.658 588.309 224.969 593.333L223.733 595.113C215.465 589.295 207.468 583.094 199.765 576.556L198.416 576.873C184.743 578.832 170.522 576.787 157.952 571.058Z" fill="#782540"/>
<path fill-rule="evenodd" clip-rule="evenodd" d="M154.004 505.593C154.43 512.76 158.828 519.001 163.124 524.758C164.238 526.254 165.394 527.831 165.667 529.673C165.942 531.518 164.999 533.688 163.18 534.115C160.323 534.786 158.358 531.126 155.546 530.283C152.306 529.312 149.066 532.708 148.958 536.084C148.849 539.458 150.857 542.514 152.975 545.148C157.784 551.132 163.605 556.303 170.117 560.379C172.685 561.986 175.784 564.762 174.294 567.397C173.032 569.624 169.627 569.176 167.43 567.857C165.232 566.539 163.12 564.591 160.559 564.718C157.086 564.889 154.976 569.063 155.641 572.471C156.303 575.879 158.812 578.584 161.215 581.094C173.213 593.507 184.58 606.924 197.219 618.678C204.907 625.825 206.183 614.411 208.038 608.157C210.599 599.52 213.159 590.882 215.72 582.245C216.6 579.279 216.615 574.846 213.544 574.428C212.972 574.351 212.399 574.457 211.825 574.562C211.235 574.671 210.647 574.781 210.062 574.69C208.343 574.421 207.317 572.483 207.393 570.748C207.47 569.013 208.338 567.429 209.083 565.86C212.755 558.139 213.835 549.217 212.109 540.846C211.365 537.234 210.002 533.563 207.213 531.144C204.425 528.726 199.911 528 197.049 530.331C196.027 531.164 195.242 532.334 194.028 532.845C191.799 533.781 189.193 531.903 188.47 529.601C187.746 527.298 188.358 524.813 189.016 522.491C190.183 518.365 191.496 514.19 191.408 509.904C191.319 505.618 189.544 501.097 185.844 498.917C182.147 496.738 176.477 497.953 174.941 501.956C175.768 496.75 171.439 491.319 166.17 490.954C165.955 490.938 165.742 490.931 165.529 490.931C158.677 490.931 153.591 498.642 154.004 505.593Z" fill="url(#paint5_linear_1_2043)"/>
<path fill-rule="evenodd" clip-rule="evenodd" d="M197.767 552.307C197.789 552.027 198.097 551.845 198.356 551.918C198.484 551.948 198.604 552.046 198.63 552.183C198.658 552.315 198.621 552.449 198.611 552.581L198.428 554.175L198.086 557.366C197.87 559.494 197.688 561.626 197.534 563.759C197.223 568.026 197.03 572.301 196.954 576.579C196.879 580.857 196.92 585.136 197.078 589.41C197.16 591.548 197.27 593.683 197.403 595.818L197.632 599.017L197.768 600.616L197.836 601.415L197.87 601.815C197.889 601.936 197.892 602.087 197.845 602.261L197.85 602.197L203.967 627.59L204 627.731L203.858 627.764L203.02 627.967L202.877 628L202.842 627.854C201.447 621.953 200.161 616.027 198.676 610.148L198.712 610.222C188.962 598.575 178.562 587.485 167.578 577.016L167.447 576.89C167.384 576.825 167.326 576.748 167.285 576.653C167.202 576.458 167.242 576.226 167.34 576.07C167.519 575.757 167.969 575.584 168.322 575.801C168.775 576.183 169.038 576.473 169.405 576.814L171.455 578.793L175.512 582.793C178.199 585.48 180.847 588.206 183.457 590.966C188.678 596.491 193.744 602.162 198.651 607.97L198.04 608.286C193.666 590.88 188.639 573.64 182.979 556.616L183.209 556.882L173.317 550.585L168.395 547.447L165.934 545.878L164.706 545.089L164.092 544.696L163.785 544.498L163.633 544.399C163.586 544.367 163.447 544.276 163.378 544.176C163.015 543.708 163.195 543.092 163.596 542.824C163.798 542.671 164.124 542.615 164.373 542.71C164.654 542.829 164.668 542.876 164.792 542.945L166.02 543.734L168.475 545.313L173.387 548.469L183.209 554.782L182.55 555.301C178.259 542.315 173.603 529.451 168.587 516.731C167.33 513.551 166.061 510.376 164.756 507.216L163.778 504.847L163.286 503.664C163.2 503.447 163.131 503.311 163.031 503.028C162.917 502.66 163.131 502.248 163.438 502.097C163.59 502.014 163.788 501.968 163.998 502.026C164.21 502.082 164.377 502.263 164.44 502.422L164.683 503.026L165.158 504.219L166.108 506.603L173.705 525.675L173.146 525.749C173.472 522.705 174.01 519.684 174.759 516.718C175.134 515.234 175.56 513.765 176.042 512.312C176.284 511.587 176.535 510.865 176.802 510.149L177.004 509.612C177.044 509.513 177.056 509.455 177.12 509.322C177.181 509.192 177.298 509.07 177.436 509.009C177.714 508.883 178.023 508.926 178.253 509.135C178.366 509.239 178.447 509.407 178.447 509.57C178.452 509.742 178.381 509.87 178.359 509.942C176.183 515.605 174.826 521.586 174.354 527.642L174.342 527.547C182.983 550.534 190.413 573.979 196.667 597.732L196.501 597.759C195.45 582.612 195.871 567.365 197.767 552.307ZM197.767 552.307C195.927 567.372 195.563 582.616 196.669 597.748L196.504 597.775C190.163 574.052 182.648 550.646 173.925 527.706L173.908 527.66L173.913 527.609C174.363 521.508 175.709 515.475 177.88 509.758C177.961 509.544 177.938 509.577 177.9 509.513C177.852 509.459 177.722 509.44 177.658 509.477C177.624 509.493 177.6 509.516 177.582 509.558C177.56 509.594 177.519 509.721 177.489 509.798L177.29 510.331C177.027 511.043 176.782 511.76 176.545 512.479C176.071 513.921 175.655 515.38 175.289 516.853C174.556 519.796 174.035 522.791 173.723 525.81L173.603 526.975L173.163 525.884L165.501 506.857L164.543 504.478L164.065 503.29L163.827 502.704C163.788 502.659 163.85 502.678 163.76 502.696C163.687 502.741 163.667 502.795 163.684 502.844L163.914 503.397L164.409 504.58L165.399 506.948C166.715 510.107 167.998 513.279 169.268 516.455C174.337 529.171 179.046 542.032 183.392 555.017L183.789 556.209L182.733 555.536L172.887 549.26L167.966 546.121L165.504 544.552L164.273 543.768C164.191 543.711 164.011 543.603 164.065 543.635C164.083 543.647 164.145 543.636 164.151 543.626C164.151 543.626 164.167 543.638 164.133 543.558L183.609 556.063L183.789 556.178L183.839 556.328C189.443 573.395 194.409 590.673 198.724 608.114L199.09 609.595L198.114 608.429C193.237 602.611 188.2 596.93 183.009 591.396C180.412 588.628 177.778 585.898 175.106 583.204L171.068 579.193L169.029 577.21L168.046 576.266C167.983 576.216 167.858 576.257 167.798 576.351C167.773 576.459 167.719 576.409 167.945 576.627C178.904 587.151 189.274 598.294 198.989 609.987L199.017 610.02L199.028 610.06C200.491 615.947 201.755 621.882 203.129 627.789L202.952 627.679L203.792 627.48L203.683 627.654L197.664 602.245L197.67 602.181C197.379 598.018 197.056 593.671 196.934 589.414C196.791 585.138 196.767 580.856 196.858 576.577C196.95 572.298 197.16 568.021 197.486 563.755C197.648 561.622 197.838 559.49 198.062 557.363L198.415 554.173L198.605 552.58C198.616 552.447 198.652 552.314 198.626 552.183C198.6 552.049 198.483 551.951 198.356 551.921C198.098 551.849 197.79 552.027 197.767 552.307Z" fill="#782540"/>
<path fill-rule="evenodd" clip-rule="evenodd" d="M261.887 472.769C256.352 473.734 250.009 475.654 248.019 480.953C246.697 484.475 247.785 488.398 248.88 491.998C246.761 488.658 244.642 485.318 242.523 481.978C237.618 485.168 234.095 490.443 233.007 496.227C231.92 502.013 233.283 508.225 236.69 513.004C233.639 509.591 230.585 506.179 227.534 502.768C225.423 513.085 223.357 524.081 227.095 533.92C231.504 545.525 242.864 552.711 250.353 562.578C250.353 562.578 271.749 551.054 276.711 533.242C277.302 531.123 278.109 512.203 278.109 512.203C278.109 512.203 264.506 516.664 260.738 518.605C266.775 515.259 277.225 503.562 279.821 496.967C277.807 494.042 274.432 492.118 270.912 491.882C275.591 490.353 278.44 485.318 278.933 480.383C279.426 475.447 278.027 470.541 276.645 465.78C273.735 470.628 267.423 471.804 261.887 472.769Z" fill="url(#paint6_linear_1_2043)"/>
<path fill-rule="evenodd" clip-rule="evenodd" d="M247.79 555.853C248.608 558.505 249.584 561.108 250.712 563.642C251.855 566.156 253.083 568.69 254.576 570.975C254.725 571.047 254.921 570.99 255.015 570.856C255.128 570.711 255.02 570.543 254.929 570.401L254.408 569.501L253.404 567.678C252.752 566.454 252.137 565.209 251.559 563.949C250.403 561.424 249.393 558.833 248.543 556.189L248.536 556.167L248.551 556.152C248.637 556.058 248.625 555.925 248.542 555.821L248.319 555.475L248.316 555.469L248.315 555.465L247.517 552.526L247.118 551.055C246.974 550.569 246.885 550.068 246.767 549.574L246.763 549.553L246.777 549.535C249.852 545.939 252.662 542.118 255.175 538.109C257.676 534.111 259.939 529.882 261.774 525.594C261.783 525.364 261.364 525.283 261.259 525.505L260.895 526.305C260.654 526.846 260.406 527.385 260.149 527.919C259.646 528.991 259.118 530.052 258.571 531.104C257.479 533.206 256.308 535.269 255.063 537.286C252.573 541.317 249.781 545.163 246.72 548.779L246.573 548.954L246.528 548.73C244.744 539.923 244.733 530.768 246.433 521.944L246.444 521.889L246.488 521.856L261.78 510.662C261.814 510.005 260.888 510.929 260.312 511.3L258.393 512.701L254.557 515.508L246.883 521.119L246.495 521.402L246.592 520.931C248.31 512.642 251.531 504.667 256.064 497.518L256.11 497.446L256.193 497.425L260.755 496.286L263.036 495.717L264.175 495.432L264.745 495.289C264.912 495.244 265.196 495.189 265.195 495.16C265.243 495.132 265.237 494.991 265.188 494.96C265.169 494.947 265.159 494.939 265.112 494.948L264.833 495.017L263.693 495.302L261.412 495.872L256.851 497.01L256.267 497.157L256.598 496.652C258.088 494.376 259.712 492.187 261.459 490.1C262.331 489.057 263.239 488.044 264.173 487.056L265.598 485.597L266.327 484.884L266.51 484.706C266.544 484.668 266.548 484.657 266.552 484.636C266.565 484.598 266.504 484.508 266.457 484.502C266.427 484.487 266.413 484.496 266.256 484.651L265.894 485.003L265.173 485.716L263.765 487.172C262.839 488.155 261.942 489.166 261.073 490.2C259.339 492.272 257.721 494.443 256.238 496.702L255.884 497.24L255.835 496.598L255.505 492.28L255.34 490.12L255.257 489.041C255.251 488.968 255.244 488.823 255.238 488.809C255.225 488.779 255.225 488.776 255.2 488.767C255.147 488.744 255.021 488.793 254.998 488.859C254.963 488.883 255 489.112 255.008 489.284L255.049 489.824L255.132 490.904L255.296 493.063L255.461 495.222L255.543 496.302L255.584 496.841C255.601 497.008 255.605 497.259 255.632 497.25L255.671 497.235L255.681 497.383L255.684 497.422L255.691 497.513L255.656 497.568C254.547 499.369 253.451 501.181 252.501 503.075C251.535 504.958 250.656 506.885 249.864 508.85C248.288 512.78 247.076 516.856 246.229 521.008L246.053 521.864L245.893 521.005L244.095 511.45L243.195 506.673L242.745 504.284L242.633 503.685C242.593 503.514 242.565 503.222 242.516 503.165C242.464 503.082 242.283 503.082 242.207 503.17C242.171 503.211 242.155 503.259 242.166 503.324L242.222 503.62L244.02 513.176C244.623 516.333 245.208 519.61 245.828 522.671L245.851 522.769C244.302 531.543 244.431 540.613 246.223 549.343L246.228 549.367L246.221 549.388C246.197 549.472 246.221 549.569 246.277 549.643L246.289 549.66L246.294 549.682L247.205 553.497L247.337 554.047L247.039 553.571C243.461 547.839 240.293 541.85 237.573 535.666C236.211 532.571 234.961 529.43 233.827 526.247C233.255 524.657 232.719 523.054 232.211 521.442C231.948 520.64 231.715 519.828 231.469 519.02C231.316 518.669 231.337 518.036 230.879 518.131C230.672 518.17 230.617 518.372 230.713 518.57L230.895 519.178C234.733 532.129 240.438 544.525 247.79 555.853ZM247.79 555.853C240.413 544.542 234.677 532.155 230.807 519.203L230.623 518.598C230.595 518.504 230.548 518.382 230.59 518.26C230.629 518.138 230.747 518.065 230.859 518.038C231.091 517.967 231.355 518.159 231.38 518.386L231.563 518.992C231.809 519.799 232.045 520.61 232.31 521.411C232.822 523.02 233.36 524.621 233.935 526.209C235.076 529.386 236.332 532.522 237.697 535.609C240.431 541.782 243.608 547.757 247.195 553.472L247.029 553.545L246.105 549.722L246.123 549.761C246.036 549.645 245.995 549.487 246.035 549.336L246.033 549.382C244.216 540.632 244.067 531.534 245.6 522.724L245.623 522.823C245.479 522.543 245.515 522.398 245.454 522.183L245.34 521.586L245.112 520.392L244.659 518.004L243.749 513.228L241.928 503.676L241.871 503.376C241.844 503.242 241.884 503.072 241.989 502.965C242.187 502.755 242.548 502.73 242.753 502.98C242.913 503.274 242.867 503.414 242.931 503.629L243.045 504.226L243.499 506.615L244.409 511.391L246.229 520.942L245.893 520.94C246.734 516.767 247.944 512.666 249.52 508.712C250.311 506.735 251.192 504.794 252.158 502.899C253.109 500.991 254.206 499.167 255.319 497.353L255.291 497.498L255.281 497.38L255.331 497.513C255.133 497.204 255.231 497.054 255.185 496.873L255.143 496.333L255.057 495.254L254.888 493.095L254.718 490.936L254.633 489.857L254.591 489.317C254.601 489.136 254.503 488.988 254.622 488.673C254.758 488.415 255.038 488.284 255.331 488.366C255.481 488.405 255.614 488.558 255.645 488.702C255.677 488.865 255.667 488.902 255.679 489.008L255.764 490.088L255.933 492.247L256.272 496.563L255.87 496.459C257.359 494.183 258.981 491.994 260.723 489.906C261.593 488.861 262.495 487.843 263.424 486.85L264.839 485.381L265.563 484.663L265.927 484.307C265.999 484.243 266.021 484.203 266.151 484.107C266.272 484.027 266.446 483.998 266.588 484.042C266.865 484.129 267.047 484.379 267.027 484.682C267.016 484.832 266.926 484.972 266.84 485.052L266.66 485.229L265.937 485.94L264.526 487.391C263.598 488.374 262.703 489.384 261.832 490.417C260.094 492.484 258.477 494.654 256.99 496.912L256.737 496.552L261.301 495.424L263.583 494.86L264.724 494.578L265.015 494.506C265.158 494.467 265.364 494.503 265.488 494.626C265.732 494.861 265.747 495.234 265.507 495.483C265.197 495.709 265.052 495.647 264.854 495.725L264.283 495.866L263.142 496.148L260.861 496.712L256.295 497.84L256.424 497.749C251.904 504.842 248.681 512.764 246.955 521.007L246.665 520.819L254.352 515.225L258.195 512.428L260.117 511.03L261.078 510.332C261.169 510.27 261.214 510.223 261.342 510.148C261.468 510.079 261.63 510.07 261.761 510.121C262.007 510.204 262.243 510.531 262.054 510.837C259.441 512.825 256.916 514.601 254.342 516.492L246.655 522.085L246.711 521.998C244.997 530.782 244.988 539.904 246.744 548.686L246.552 548.636C249.614 545.034 252.407 541.204 254.903 537.186C256.15 535.176 257.323 533.12 258.417 531.023C258.966 529.976 259.496 528.917 260.001 527.848C260.257 527.315 260.508 526.779 260.748 526.238L261.124 525.423C261.308 525.087 261.909 525.166 261.931 525.595C260.055 530.01 257.799 534.15 255.28 538.175C252.755 542.183 249.932 546.002 246.847 549.594L246.857 549.555C246.973 550.048 247.061 550.548 247.204 551.036L247.599 552.504L248.389 555.442L248.385 555.431L248.607 555.779C248.7 555.884 248.724 556.089 248.608 556.203L248.616 556.165C249.46 558.808 250.461 561.4 251.611 563.923C252.185 565.186 252.798 566.431 253.446 567.656L254.445 569.48L254.965 570.38C255.049 570.513 255.179 570.712 255.048 570.878C254.941 571.028 254.728 571.089 254.56 571.011C253.038 568.69 251.839 566.174 250.694 563.65C249.573 561.112 248.603 558.506 247.79 555.853Z" fill="#782540"/>
<path fill-rule="evenodd" clip-rule="evenodd" d="M205.854 558.365C204.735 525.998 205.027 491.939 188.686 464.035C216.448 484.483 236.725 513.845 245.613 546.468C250.022 562.651 251.617 579.6 250.456 596.459C249.709 607.336 249.449 632.652 237.886 639.106C211.453 653.862 206.29 570.988 205.854 558.365Z" fill="#FC88AE"/>
<path fill-rule="evenodd" clip-rule="evenodd" d="M209.867 502.008C219.864 526 226.51 551.389 229.666 577.215C231.236 590.127 231.976 603.151 231.754 616.165C231.622 622.671 231.346 629.177 230.787 635.662L230.35 640.524L230.241 641.741L230.211 642.057C230.187 642.281 230.021 642.517 229.818 642.611C229.617 642.706 229.396 642.734 229.154 642.623C228.893 642.528 228.742 642.149 228.79 641.948L229.035 639.527C229.35 636.297 229.611 633.062 229.819 629.823C231.497 603.927 229.804 577.787 224.51 552.359C221.842 539.654 218.377 527.107 213.986 514.883C209.59 502.664 204.371 490.741 198.376 479.219L198.342 479.156L198.402 479.119L198.937 478.78L199.005 478.736L199.042 478.809C202.998 486.372 206.62 494.113 209.867 502.008ZM209.867 502.008C206.574 494.133 202.909 486.414 198.91 478.877L199.017 478.906L198.483 479.248L198.509 479.149C204.576 490.64 209.869 502.544 214.34 514.755C218.809 526.968 222.354 539.517 225.1 552.234C227.867 564.949 229.63 577.878 230.604 590.857C231.568 603.837 231.682 616.897 230.728 629.885C230.5 633.132 230.219 636.375 229.885 639.612L229.624 642.04C229.645 642.038 229.586 641.883 229.517 641.868C229.46 641.847 229.461 641.856 229.44 641.862C229.419 641.868 229.382 641.918 229.385 641.94L229.414 641.651L229.53 640.439L229.994 635.594C230.588 629.13 230.902 622.643 231.072 616.154C231.368 603.171 230.707 590.169 229.214 577.269C226.214 551.467 219.724 526.058 209.867 502.008Z" fill="#782540"/>
<path fill-rule="evenodd" clip-rule="evenodd" d="M242.21 570.592C237.182 580.186 233.832 590.652 232.243 601.439C231.218 608.4 227.891 624.397 234.335 630.062C249.064 643.01 263.768 591.476 265.788 583.578C270.96 563.326 275.473 541.814 289.686 526.477C269.258 535.539 252.347 551.253 242.21 570.592Z" fill="url(#paint7_linear_1_2043)"/>
<path fill-rule="evenodd" clip-rule="evenodd" d="M270.511 547.119C260.9 560.865 253.246 575.941 247.854 591.763C245.151 599.671 242.963 607.751 241.389 615.947C240.624 620.048 239.914 624.159 239.4 628.298L239.024 631.404L238.93 632.179L238.908 632.359C238.921 632.293 238.873 632.186 238.818 632.149C238.764 632.11 238.72 632.087 238.611 632.107C238.49 632.115 238.362 632.306 238.38 632.356L238.552 630.794C238.787 628.712 239.058 626.634 239.363 624.561C240.558 616.264 242.434 608.065 244.845 600.035C247.249 592.003 250.18 584.118 253.742 576.523C257.281 568.919 261.304 561.533 265.865 554.492C270.439 547.457 275.465 540.717 280.905 534.323L280.906 534.383L280.616 534.095L280.679 534.092C277.094 538.279 273.694 542.623 270.511 547.119ZM270.511 547.119C273.67 542.607 277.047 538.243 280.613 534.036L280.643 534L280.677 534.033L280.97 534.32L281 534.349L280.973 534.381C270.109 547.178 261.168 561.537 254.351 576.794C247.562 592.065 242.796 608.206 240.305 624.7C239.991 626.762 239.71 628.828 239.465 630.897L239.286 632.452C239.294 632.63 239.076 632.95 238.821 632.984C238.583 633.033 238.401 632.966 238.244 632.846C238.084 632.729 237.981 632.487 238.003 632.292L238.028 632.082L238.127 631.304L238.522 628.185C239.066 624.031 239.778 619.899 240.619 615.794C242.313 607.586 244.618 599.509 247.435 591.62C253.106 575.855 260.84 560.826 270.511 547.119Z" fill="#782540"/>
<path fill-rule="evenodd" clip-rule="evenodd" d="M278.369 574.934C270.503 581.508 263.779 589.46 258.466 598.337C255.038 604.066 246.318 616.874 249.855 624.197C257.939 640.934 289.497 601.123 294.129 594.937C306.006 579.071 317.767 561.86 335.708 553.608C314.651 554.086 294.226 561.681 278.369 574.934Z" fill="url(#paint8_linear_1_2043)"/>
<path fill-rule="evenodd" clip-rule="evenodd" d="M312.088 565.084C298.702 573.673 286.528 584.143 276.052 596.099C270.807 602.069 265.949 608.379 261.578 615.013C259.413 618.34 257.289 621.697 255.326 625.149L253.863 627.742L253.495 628.391L253.411 628.542C253.449 628.482 253.447 628.36 253.409 628.302C253.374 628.243 253.339 628.202 253.229 628.177C253.112 628.138 252.917 628.268 252.913 628.324L253.634 627.012C254.603 625.268 255.599 623.539 256.625 621.827C260.704 614.964 265.342 608.439 270.38 602.255C275.414 596.066 280.851 590.202 286.733 584.82C292.598 579.425 298.801 574.398 305.346 569.867C311.9 565.348 318.737 561.255 325.805 557.614L325.785 557.67L325.637 557.31L325.696 557.333C321.048 559.707 316.502 562.289 312.088 565.084ZM312.088 565.084C316.486 562.265 321.018 559.656 325.657 557.255L325.698 557.233L325.716 557.277L325.867 557.636L325.883 557.674L325.845 557.692C311.719 564.99 298.695 574.369 287.185 585.305C275.696 596.266 265.641 608.722 257.433 622.316C256.403 624.013 255.403 625.728 254.429 627.459L253.705 628.76C253.646 628.926 253.325 629.137 253.083 629.07C252.849 629.025 252.711 628.896 252.615 628.728C252.516 628.56 252.515 628.301 252.609 628.131L252.709 627.956L253.08 627.306L254.566 624.709C256.562 621.254 258.697 617.879 260.933 614.577C265.416 607.976 270.382 601.715 275.724 595.805C286.433 584.012 298.663 573.613 312.088 565.084Z" fill="#782540"/>
<path fill-rule="evenodd" clip-rule="evenodd" d="M163.917 556.65C162.368 564.64 163.272 573.083 166.42 580.583C162.902 576.769 159.242 573.09 155.453 569.551C155.428 566.375 154.965 553.889 149.403 547.874C148.358 554.571 148.954 559.855 154.257 568.435C149.839 564.371 145.247 560.498 140.501 556.827C141.217 551.139 137.404 542.305 133.504 537.356C132.085 545.479 137.619 553.533 139.698 556.214C134.891 552.534 129.928 549.063 124.824 545.814C125.618 539.69 123.338 533.228 118.841 529C117.063 535.036 121.954 542.534 123.952 545.26C121.265 543.568 118.54 541.941 115.781 540.374C114.25 538.268 107.967 530.633 99 533.267C101.89 534.815 104.186 537.272 106.896 539.12C109.568 540.942 113.032 542.158 116.013 540.95C119.127 542.77 122.189 544.677 125.202 546.658C119.483 545.278 113.344 544.617 107.982 548.031C115.71 551.872 124.074 548.115 125.968 547.16C130.363 550.077 134.642 553.164 138.803 556.405C132.136 554.175 124.276 554.429 117.934 557.382C126.037 563.377 137.406 558.007 139.484 556.937C144.023 560.504 148.414 564.256 152.645 568.183C145.413 565.737 137.46 565.459 130.083 567.423C140.988 574.643 151.105 570.249 153.525 569C158.689 573.851 163.604 578.964 168.246 584.312C158.98 579.435 148.771 576.94 138.361 578.185C147.277 587.048 165.623 585.229 168.711 584.851C172.298 589.012 175.724 593.311 178.967 597.744L180.042 596.944C176.289 591.932 172.307 587.099 168.121 582.451L168.291 581.61C169.236 573.1 167.699 564.327 163.917 556.65Z" fill="#A33257"/>
<path fill-rule="evenodd" clip-rule="evenodd" d="M121.434 631.579C120.955 623.452 122.965 615.204 127.076 608.189C123.084 611.501 118.971 614.662 114.749 617.668C114.305 620.812 112.197 633.128 105.889 638.35C105.738 631.575 107.026 626.416 113.416 618.614C108.5 622.057 103.437 625.285 98.2485 628.294C98.2061 634.028 93.2607 642.276 88.7412 646.664C88.4072 638.424 94.957 631.176 97.3706 628.795C92.1211 631.805 86.7408 634.586 81.2537 637.127C81.233 643.305 78.1194 649.406 73.104 653C72.1388 646.781 77.9759 639.997 80.316 637.563C77.4296 638.882 74.5145 640.135 71.573 641.319C69.7769 643.203 62.5408 649.938 53.9998 646.136C57.0698 644.985 59.6704 642.856 62.6005 641.384C65.4892 639.932 69.0837 639.186 71.8783 640.78C75.2054 639.387 78.4924 637.905 81.7403 636.342C75.8894 636.95 69.7161 636.79 64.8522 632.695C73.0214 629.914 80.8153 634.748 82.5666 635.946C87.3077 633.639 91.957 631.146 96.5087 628.487C89.6065 629.814 81.8493 628.517 75.9537 624.747C84.7771 619.882 95.3369 626.714 97.2546 628.051C102.225 625.119 107.073 621.98 111.784 618.65C104.292 620.116 96.3732 619.334 89.3207 616.407C101.083 610.7 110.531 616.398 112.764 617.956C118.523 613.835 124.071 609.419 129.379 604.736C119.549 608.34 109.102 609.456 98.9486 606.841C108.955 599.238 126.899 603.478 129.911 604.263C134.016 600.615 137.979 596.808 141.779 592.846L142.738 593.78C138.358 598.25 133.771 602.512 129.01 606.563L129.065 607.419C128.878 615.98 126.196 624.471 121.434 631.579Z" fill="#782540"/>
<path fill-rule="evenodd" clip-rule="evenodd" d="M108.078 596.252C105.801 596.342 103.425 596.797 101.67 598.248C99.9145 599.699 99.0174 602.368 100.15 604.342C100.554 605.049 101.189 605.643 101.378 606.434C101.725 607.882 100.316 609.276 98.8405 609.484C97.3645 609.69 95.9091 609.068 94.5606 608.434C92.1622 607.31 89.7501 606.091 87.1277 605.712C84.5054 605.334 81.5694 605.958 79.8671 607.986C78.1671 610.014 78.336 613.581 80.6229 614.917C77.5319 613.891 73.785 615.975 73.0304 619.137C72.0035 623.448 76.3178 627.544 80.7309 628.009C85.1417 628.471 89.3906 626.427 93.335 624.399C94.3585 623.871 95.4347 623.327 96.5868 623.348C97.7389 623.366 98.968 624.159 99.0438 625.306C99.1656 627.11 96.7362 627.936 95.939 629.559C95.0201 631.431 96.7649 633.743 98.8118 634.148C100.858 634.555 102.924 633.642 104.742 632.621C108.875 630.302 112.615 627.285 115.755 623.739C116.994 622.341 118.999 620.736 120.455 621.909C121.687 622.901 121.07 624.923 120.045 626.126C119.02 627.328 117.619 628.416 117.438 629.985C117.192 632.112 119.525 633.815 121.669 633.755C123.813 633.697 125.715 632.443 127.489 631.236C136.265 625.197 145.592 619.642 154.031 613.146C159.162 609.196 152.333 607.27 148.706 605.511C143.699 603.085 138.689 600.657 133.684 598.231C131.962 597.397 129.26 596.94 128.696 598.767C128.484 599.454 128.731 600.223 128.504 600.907C128.169 601.927 126.884 602.353 125.834 602.132C124.784 601.911 123.904 601.224 123.023 600.612C118.941 597.779 113.981 596.234 109.011 596.234C108.7 596.234 108.389 596.241 108.078 596.252Z" fill="url(#paint9_linear_1_2043)"/>
<path fill-rule="evenodd" clip-rule="evenodd" d="M113.795 605.547C113.629 605.505 113.55 605.294 113.621 605.141C113.685 604.951 113.905 604.989 114.046 605.049L114.99 605.328L116.881 605.865C118.144 606.218 119.413 606.548 120.684 606.863C123.229 607.492 125.791 608.05 128.364 608.534C130.939 609.018 133.527 609.43 136.123 609.769C138.728 610.127 141.302 610.331 143.956 610.606L143.918 610.596L159.863 609.389L159.95 609.382L159.957 609.475L159.994 610.017L160 610.109L159.909 610.115C156.207 610.38 152.5 610.574 148.801 610.896L148.849 610.881C140.839 615.753 133.097 621.085 125.672 626.846C125.622 626.878 125.559 626.954 125.423 626.99C125.298 627.022 125.161 626.973 125.078 626.896C124.905 626.753 124.846 626.456 125.014 626.259C125.29 626.016 125.492 625.882 125.735 625.689L127.134 624.617L129.958 622.503C131.85 621.107 133.762 619.738 135.69 618.398C139.551 615.716 143.484 613.146 147.485 610.688L147.613 611.101C136.667 612.04 125.754 613.403 114.909 615.183L115.091 615.068L110.296 620.574L107.906 623.314L106.71 624.682L106.112 625.366L105.812 625.707L105.661 625.878C105.61 625.927 105.586 625.993 105.426 626.099C105.108 626.277 104.753 626.101 104.631 625.825C104.559 625.683 104.559 625.475 104.641 625.33C104.742 625.167 104.771 625.164 104.826 625.093L105.425 624.41L106.625 623.045L109.025 620.314L113.824 614.853L114.07 615.315C105.8 616.655 97.5666 618.234 89.3832 620.053L83.2562 621.463L81.7267 621.828L80.9626 622.012C80.8234 622.045 80.7345 622.074 80.5531 622.106C80.3193 622.141 80.0912 621.965 80.0319 621.759C79.9292 621.564 80.0866 621.2 80.3284 621.169L80.7185 621.08L81.4861 620.906L83.0213 620.56L95.2981 617.785L95.2855 618.141C93.4812 617.627 91.7122 616.983 89.9968 616.214C89.1403 615.829 88.2951 615.414 87.4671 614.966L86.2376 614.273L85.9331 614.092C85.8612 614.044 85.6673 613.969 85.6126 613.76C85.5647 613.576 85.6228 613.388 85.7723 613.266C85.9217 613.115 86.2079 613.219 86.2695 613.283C89.4688 615.214 92.9429 616.671 96.5515 617.582L96.4911 617.581C111.237 614.559 126.136 612.335 141.103 610.875V610.981C131.856 610.087 122.694 608.265 113.795 605.547ZM113.795 605.547C122.704 608.231 131.868 610.016 141.114 610.875V610.981C126.155 612.498 111.271 614.778 96.5458 617.856L96.5162 617.862L96.4854 617.855C92.8493 616.949 89.3422 615.497 86.111 613.561C85.989 613.49 86.0072 613.506 85.9639 613.524C85.9262 613.548 85.9023 613.627 85.9194 613.671C85.9034 613.725 86.2308 613.878 86.3973 613.987L87.6188 614.671C88.4423 615.112 89.2806 615.52 90.1314 615.898C91.8342 616.655 93.5907 617.286 95.3802 617.787L96.0725 617.982L95.3699 618.143L83.1136 620.962L81.5808 621.315L80.8143 621.491L80.4379 621.578C80.4071 621.598 80.4242 621.562 80.4254 621.619C80.4471 621.668 80.4767 621.687 80.5075 621.681L80.8645 621.596L81.6287 621.409L83.1581 621.035L89.2874 619.602C97.4708 617.75 105.709 616.137 113.985 614.763L114.744 614.637L114.231 615.225L109.451 620.706L107.063 623.445L105.867 624.815L105.269 625.5C105.228 625.547 105.144 625.647 105.169 625.616C105.176 625.605 105.177 625.567 105.172 625.562C105.172 625.562 105.181 625.554 105.13 625.566L114.638 614.732L114.725 614.633L114.821 614.618C125.688 612.879 136.617 611.556 147.578 610.658L148.509 610.581L147.706 611.07C143.705 613.507 139.768 616.058 135.905 618.721C133.973 620.052 132.06 621.412 130.166 622.797L127.338 624.897L125.935 625.962L125.267 626.477C125.229 626.512 125.242 626.594 125.292 626.64C125.356 626.667 125.319 626.696 125.473 626.577C132.929 620.837 140.7 615.531 148.736 610.683L148.758 610.672L148.784 610.669C152.485 610.36 156.194 610.182 159.898 609.931L159.814 610.03L159.778 609.487L159.871 609.571L143.93 610.717L143.891 610.707C141.349 610.462 138.692 610.219 136.11 609.858C133.514 609.51 130.928 609.088 128.354 608.594C125.78 608.099 123.221 607.531 120.677 606.892C119.406 606.574 118.139 606.238 116.877 605.879L114.987 605.333L114.045 605.053C113.904 604.993 113.688 604.953 113.622 605.141C113.551 605.293 113.629 605.504 113.795 605.547Z" fill="#782540"/>
<path fill-rule="evenodd" clip-rule="evenodd" d="M69.1268 549.479C71.7611 551.744 71.8365 555.723 71.8594 559.204C71.8834 562.685 72.4034 566.756 75.4023 568.505C77.3954 569.667 79.8743 569.396 82.1588 569.087C79.928 570.049 77.6971 571.009 75.4674 571.968C76.8983 575.288 79.728 577.973 83.112 579.218C86.496 580.464 90.3851 580.253 93.6148 578.649C91.2468 580.174 88.8788 581.697 86.5097 583.222C92.5291 585.549 98.9611 587.914 105.279 586.617C112.733 585.084 118.218 578.86 124.933 575.27C124.933 575.27 120.131 561.032 109.875 556.208C108.655 555.636 97.3097 553.242 97.3097 553.242C97.3097 553.242 98.632 562.008 99.424 564.506C98.0125 560.48 92.0034 552.915 88.2811 550.667C86.3131 551.605 84.8091 553.475 84.3108 555.605C83.8605 552.59 81.1074 550.341 78.1771 549.545C76.888 549.194 75.5645 549.068 74.2308 549.068C72.5325 549.068 70.8148 549.272 69.1268 549.479Z" fill="url(#paint10_linear_1_2043)"/>
<path fill-rule="evenodd" clip-rule="evenodd" d="M120.556 575.733C122.262 575.501 123.954 575.169 125.619 574.735C127.274 574.292 128.95 573.799 130.501 573.119C130.559 573.036 130.544 572.91 130.472 572.839C130.395 572.756 130.281 572.805 130.184 572.846L129.581 573.074L128.363 573.502C127.547 573.775 126.723 574.026 125.893 574.251C124.231 574.702 122.544 575.054 120.838 575.308L120.824 575.309L120.818 575.299C120.708 575.165 120.531 575.329 120.379 575.373L120.372 575.374L118.493 575.565C117.866 575.627 117.24 575.701 116.61 575.724L116.597 575.725L116.588 575.714C114.7 573.479 112.646 571.383 110.449 569.449C108.257 567.523 105.899 565.719 103.462 564.17C103.323 564.141 103.229 564.389 103.355 564.475L103.807 564.778L104.719 565.394C105.324 565.807 105.92 566.236 106.508 566.676C107.683 567.553 108.827 568.473 109.933 569.434C112.148 571.357 114.217 573.444 116.119 575.673L116.211 575.78L116.07 575.786C110.5 575.987 104.896 575.073 99.6688 573.149L99.6366 573.138L99.6205 573.107L94.3258 562.665C93.9262 562.578 94.3983 563.235 94.5665 563.623L95.2297 564.933L96.5563 567.554L99.2105 572.793L99.3441 573.057L99.0654 572.95C94.168 571.07 89.6149 568.306 85.7009 564.826L85.6618 564.79L85.6583 564.738L85.4246 561.844L85.3083 560.397L85.2496 559.674L85.2196 559.313C85.2104 559.206 85.2046 559.028 85.1862 559.027C85.1747 558.995 85.0872 558.983 85.0642 559.01C85.0538 559.02 85.048 559.025 85.0492 559.054L85.063 559.233L85.1217 559.955L85.238 561.402L85.4706 564.295L85.5017 564.666L85.2254 564.414C83.984 563.277 82.8106 562.067 81.7121 560.794C81.1617 560.157 80.6331 559.502 80.1242 558.834L79.3757 557.818C79.1258 557.525 78.869 556.946 78.793 557.186C78.7377 557.167 78.9473 557.43 79.0429 557.579L79.4068 558.09L80.1529 559.093C80.6608 559.757 81.1882 560.405 81.7328 561.038C82.8233 562.303 83.9886 563.507 85.2196 564.638L85.5121 564.907L85.116 564.873L82.4399 564.639L81.1018 564.522L80.4328 564.465C80.2923 564.451 80.26 564.449 80.2589 564.471C80.2393 564.502 80.2566 564.583 80.2946 564.605C80.3061 564.628 80.4489 564.628 80.556 564.641L80.8899 564.669L81.5589 564.729L82.8959 564.845L84.2339 564.962L84.9029 565.02L85.2369 565.049C85.3463 565.066 85.4856 565.063 85.4937 565.061L85.58 565.044L85.6042 565.047L85.6606 565.052L85.6906 565.079C86.6797 565.937 87.6781 566.786 88.7398 567.555C89.7934 568.332 90.8839 569.062 92.0055 569.742C94.2498 571.098 96.6219 572.246 99.0758 573.181L99.5813 573.373L99.0401 573.385L93.0096 573.519L89.9949 573.586L88.4865 573.62C88.2562 573.63 87.9395 573.619 87.7794 573.649C87.723 573.67 87.7057 573.782 87.7529 573.836C87.7737 573.895 87.8911 573.873 88.0293 573.873L100.052 573.591L100.114 573.587C105.326 575.413 110.888 576.246 116.413 576.034L116.429 576.033L116.442 576.039C116.49 576.061 116.551 576.057 116.602 576.03L116.613 576.025L116.628 576.023L119.055 575.852L119.406 575.827L119.083 575.961C115.212 577.565 111.225 578.892 107.164 579.929C105.133 580.446 103.084 580.892 101.021 581.262C99.9901 581.451 98.9549 581.615 97.9174 581.763L96.3582 581.972C96.1291 582.03 95.7433 581.954 95.7548 582.242C95.7583 582.372 95.8746 582.426 96.0082 582.388L96.3974 582.338C104.712 581.301 112.877 579.073 120.556 575.733ZM120.556 575.733C112.885 579.09 104.723 581.338 96.4031 582.394L96.0151 582.445C95.8942 582.495 95.6846 582.413 95.6961 582.245C95.6765 582.097 95.8205 581.955 95.9621 581.963L96.3502 581.913L97.9082 581.701C98.9434 581.55 99.9786 581.382 101.008 581.193C103.068 580.817 105.115 580.369 107.143 579.846C111.198 578.802 115.177 577.467 119.04 575.855L119.067 575.964L116.634 576.142L116.658 576.137C116.579 576.178 116.479 576.187 116.391 576.147L116.419 576.153C110.88 576.379 105.297 575.556 100.063 573.735L100.125 573.731C98.0521 573.841 96.0876 573.846 94.0632 573.908L88.0339 574.057L87.8439 574.061C87.7587 574.066 87.6597 574.023 87.6044 573.948C87.4962 573.807 87.518 573.585 87.6908 573.484C88.0189 573.412 88.2147 573.454 88.483 573.433L89.9903 573.395L93.005 573.322L99.0355 573.173L98.9998 573.378C96.5321 572.445 94.145 571.295 91.8869 569.938C90.7561 569.258 89.6587 568.525 88.597 567.747C87.5272 566.975 86.5208 566.124 85.5248 565.263L85.61 565.294L85.5386 565.289L85.6238 565.273C85.4142 565.345 85.329 565.297 85.2162 565.297L84.8811 565.268L84.212 565.211L82.874 565.097L81.5359 564.983L80.8669 564.926L80.5329 564.899C80.4224 564.874 80.3222 564.918 80.1414 564.814C79.9975 564.705 79.9468 564.521 80.0274 564.35C80.0677 564.262 80.1748 564.198 80.2658 564.194C80.3683 564.19 80.3902 564.202 80.4558 564.204L81.1248 564.261L82.4629 564.375L85.139 564.603L85.0342 564.837C83.7929 563.701 82.6183 562.493 81.5175 561.222C80.9671 560.586 80.4351 559.935 79.9226 559.269L79.1684 558.259L78.8011 557.747L78.6203 557.487C78.5811 557.439 78.4268 557.247 78.5259 557.059C78.6076 556.899 78.7792 556.813 78.9623 556.855C79.0521 556.877 79.1281 556.947 79.1696 557.006L79.2594 557.135L79.6198 557.646L80.366 558.653C80.8715 559.316 81.3989 559.963 81.9424 560.597C83.0306 561.865 84.1948 563.068 85.4246 564.201L85.1793 564.318L84.9525 561.423L84.8385 559.978L84.7832 559.253L84.7694 559.069C84.759 558.979 84.8016 558.857 84.8891 558.793C85.0584 558.668 85.2887 558.698 85.4154 558.868C85.5225 559.079 85.4706 559.162 85.4983 559.29L85.5259 559.653L85.5835 560.375L85.6975 561.822L85.9232 564.716L85.8794 564.629C89.76 568.097 94.282 570.857 99.1483 572.738L99.0044 572.895L96.3628 567.65L95.0432 565.027L94.3822 563.715L94.0517 563.059C94.0091 562.979 93.8882 562.795 93.993 562.621C94.0679 562.481 94.2912 562.371 94.4605 562.516C95.4105 564.307 96.2408 566.025 97.1366 567.782L99.7782 573.029L99.731 572.986C104.931 574.913 110.513 575.837 116.065 575.65L116.015 575.761C114.121 573.533 112.061 571.446 109.856 569.522C108.754 568.561 107.615 567.639 106.443 566.761C105.857 566.322 105.264 565.892 104.661 565.477L103.752 564.86L103.291 564.549C103.105 564.404 103.214 564.045 103.479 564.075C105.989 565.661 108.294 567.452 110.501 569.391C112.697 571.333 114.747 573.437 116.631 575.677L116.608 575.667C117.236 575.645 117.862 575.573 118.488 575.513L120.365 575.327L120.359 575.329L120.594 575.228C120.669 575.182 120.796 575.187 120.853 575.269L120.831 575.261C122.534 575.012 124.223 574.663 125.883 574.217C126.714 573.994 127.538 573.746 128.353 573.474L129.571 573.047L130.176 572.822C130.266 572.785 130.4 572.725 130.489 572.822C130.569 572.902 130.585 573.038 130.519 573.133C128.945 573.826 127.283 574.303 125.622 574.748C123.955 575.175 122.263 575.505 120.556 575.733Z" fill="#782540"/>
<path fill-rule="evenodd" clip-rule="evenodd" d="M132.155 611.035C116.625 598.296 100.886 584.213 81.207 580.349C102.085 575.874 124.051 578.514 142.878 587.763C152.217 592.349 160.761 598.552 168.138 605.993C172.896 610.795 184.578 621.282 182.853 629.277C178.912 647.553 138.211 616.002 132.155 611.035Z" fill="#FC88AE"/>
<path fill-rule="evenodd" clip-rule="evenodd" d="M107.555 586.097C122.815 591.296 137.356 598.619 150.672 607.734C157.327 612.295 163.694 617.287 169.664 622.721C172.638 625.446 175.555 628.238 178.347 631.152L180.431 633.347L180.953 633.895L181.088 634.039C181.182 634.14 181.224 634.314 181.186 634.446C181.148 634.58 181.07 634.693 180.921 634.76C180.769 634.842 180.531 634.756 180.456 634.652L179.43 633.546C178.054 632.078 176.654 630.632 175.232 629.21C163.859 617.827 150.995 607.905 136.99 599.941C129.982 595.974 122.721 592.438 115.235 589.465C107.746 586.494 100.06 584.025 92.2428 582.082L92.1998 582.073L92.2063 582.03L92.2678 581.643L92.2754 581.593L92.3239 581.605C97.4644 582.872 102.55 584.367 107.555 586.097ZM107.555 586.097C102.541 584.395 97.4475 582.932 92.3017 581.695L92.3588 581.658L92.2995 582.044L92.264 581.992C100.097 583.89 107.805 586.316 115.319 589.247C122.834 592.181 130.127 595.68 137.172 599.616C144.226 603.544 150.967 608.023 157.409 612.888C163.847 617.757 169.975 623.053 175.631 628.814C177.051 630.249 178.445 631.708 179.817 633.188L180.84 634.303C180.847 634.291 180.751 634.256 180.718 634.281C180.683 634.299 180.688 634.302 180.683 634.315C180.677 634.327 180.685 634.365 180.696 634.372L180.574 634.24L180.056 633.69L177.991 631.492C175.223 628.569 172.332 625.767 169.379 623.031C163.455 617.576 157.131 612.558 150.512 607.965C137.271 598.787 122.785 591.385 107.555 586.097Z" fill="#782540"/>
<path fill-rule="evenodd" clip-rule="evenodd" d="M178.108 622.275C183.45 626.296 189.491 629.385 195.906 631.437C200.045 632.763 209.458 636.396 213.559 633.054C222.933 625.415 193.006 611.29 188.396 609.268C176.573 604.084 163.916 599.176 156 589C159.465 602.318 167.34 614.17 178.108 622.275Z" fill="url(#paint11_linear_1_2043)"/>
<path fill-rule="evenodd" clip-rule="evenodd" d="M166.938 602.195C174.352 609.394 182.757 615.54 191.817 620.444C196.347 622.894 201.035 625.048 205.856 626.843C208.27 627.734 210.703 628.568 213.169 629.297L215.019 629.836L215.481 629.971L215.59 630.001C215.557 629.991 215.495 630.006 215.471 630.031C215.446 630.056 215.43 630.076 215.43 630.137C215.424 630.202 215.518 630.291 215.545 630.285L214.613 630.025C213.37 629.673 212.133 629.301 210.903 628.908C205.973 627.36 201.185 625.373 196.55 623.092C191.916 620.807 187.418 618.236 183.147 615.321C174.577 609.537 166.839 602.53 160.183 594.612L160.245 594.62L160.042 594.767L160.05 594.7C162.231 597.301 164.529 599.805 166.938 602.195ZM166.938 602.195C164.507 599.827 162.186 597.342 159.979 594.759L159.947 594.721L159.988 594.691L160.191 594.543L160.226 594.518L160.253 594.55C166.976 602.402 174.761 609.321 183.354 615.009C191.934 620.718 201.314 625.161 211.077 628.369C212.296 628.771 213.523 629.153 214.757 629.515L215.684 629.782C215.788 629.795 215.951 629.951 215.947 630.1C215.951 630.243 215.896 630.342 215.812 630.421C215.728 630.502 215.578 630.538 215.469 630.506L215.344 630.47L214.881 630.33L213.027 629.772C210.557 629.017 208.121 628.156 205.707 627.242C200.885 625.394 196.202 623.19 191.683 620.692C182.645 615.693 174.288 609.462 166.938 602.195Z" fill="#782540"/>
<path fill-rule="evenodd" clip-rule="evenodd" d="M191.408 607.43C194.602 612.912 198.748 617.832 203.599 621.981C206.729 624.659 213.62 631.291 218.422 629.864C229.397 626.6 208.426 603.254 205.139 599.793C196.712 590.92 187.454 581.98 184.261 570.158C182.423 583.104 184.968 596.38 191.408 607.43Z" fill="url(#paint12_linear_1_2043)"/>
<path fill-rule="evenodd" clip-rule="evenodd" d="M189.59 585.616C193.475 594.65 198.614 603.126 204.778 610.757C207.861 614.568 211.192 618.183 214.769 621.529C216.562 623.197 218.394 624.824 220.293 626.369L221.72 627.522L222.076 627.811L222.16 627.878C222.133 627.853 222.067 627.842 222.033 627.857C221.997 627.872 221.975 627.885 221.95 627.944C221.918 628.003 221.973 628.124 222.002 628.13L221.278 627.559C220.314 626.794 219.366 626.013 218.428 625.215C214.665 622.045 211.188 618.537 207.951 614.833C204.717 611.121 201.709 607.212 199.022 603.088C193.611 594.862 189.376 585.875 186.421 576.488L186.476 576.52L186.243 576.574L186.276 576.515C187.242 579.596 188.346 582.636 189.59 585.616ZM189.59 585.616C188.317 582.647 187.185 579.617 186.188 576.542L186.174 576.495L186.223 576.484L186.455 576.428L186.498 576.418L186.51 576.459C189.552 585.808 193.864 594.734 199.333 602.878C204.785 611.037 211.399 618.378 218.795 624.785C219.72 625.587 220.657 626.374 221.607 627.145L222.323 627.72C222.412 627.771 222.504 627.977 222.442 628.11C222.393 628.242 222.306 628.311 222.199 628.35C222.093 628.391 221.942 628.366 221.854 628.296L221.758 628.219L221.403 627.925L219.979 626.751C218.086 625.182 216.263 623.529 214.479 621.839C210.919 618.443 207.613 614.787 204.558 610.933C198.45 603.225 193.388 594.687 189.59 585.616Z" fill="#782540"/>
<path fill-rule="evenodd" clip-rule="evenodd" d="M315.098 549.65C316.643 557.64 315.742 566.083 312.599 573.583C316.112 569.769 319.764 566.09 323.548 562.551C323.572 559.375 324.033 546.889 329.587 540.874C330.63 547.571 330.036 552.855 324.74 561.435C329.153 557.371 333.736 553.498 338.473 549.827C337.76 544.139 341.567 535.305 345.46 530.356C346.876 538.479 341.35 546.533 339.277 549.214C344.075 545.534 349.03 542.063 354.125 538.814C353.331 532.69 355.608 526.228 360.098 522C361.872 528.036 356.991 535.534 354.996 538.26C357.677 536.568 360.397 534.941 363.153 533.374C364.68 531.268 370.954 523.633 379.906 526.267C377.02 527.815 374.728 530.272 372.023 532.12C369.355 533.942 365.898 535.158 362.92 533.95C359.813 535.77 356.755 537.677 353.747 539.658C359.457 538.278 365.585 537.617 370.939 541.031C363.223 544.872 354.874 541.115 352.982 540.16C348.595 543.077 344.322 546.164 340.169 549.405C346.825 547.175 354.672 547.429 361.002 550.382C352.914 556.377 341.563 551.007 339.49 549.937C334.957 553.504 330.573 557.256 326.351 561.183C333.571 558.737 341.511 558.459 348.876 560.423C337.989 567.643 327.889 563.249 325.473 562C320.318 566.851 315.409 571.964 310.776 577.312C320.027 572.435 330.217 569.94 340.61 571.185C331.71 580.048 313.395 578.229 310.312 577.851C306.73 582.012 303.311 586.311 300.074 590.744L299 589.944C302.747 584.932 306.721 580.099 310.901 575.451L310.731 574.61C309.788 566.1 311.323 557.327 315.098 549.65Z" fill="#A33257"/>
<path fill-rule="evenodd" clip-rule="evenodd" d="M345.403 631.579C345.882 623.452 343.875 615.204 339.771 608.189C343.755 611.501 347.862 614.662 352.077 617.668C352.522 620.812 354.625 633.128 360.923 638.35C361.073 631.575 359.788 626.416 353.407 618.614C358.317 622.057 363.371 625.285 368.549 628.294C368.592 634.028 373.53 642.276 378.042 646.664C378.374 638.424 371.835 631.176 369.426 628.795C374.668 631.805 380.038 634.586 385.517 637.127C385.536 643.305 388.646 649.406 393.653 653C394.615 646.781 388.789 639.997 386.452 637.563C389.333 638.882 392.244 640.135 395.181 641.319C396.973 643.203 404.197 649.938 412.724 646.136C409.659 644.985 407.063 642.856 404.139 641.384C401.255 639.932 397.666 639.186 394.875 640.78C391.555 639.387 388.273 637.905 385.031 636.342C390.871 636.95 397.034 636.79 401.89 632.695C393.735 629.914 385.955 634.748 384.206 635.946C379.473 633.639 374.83 631.146 370.286 628.487C377.177 629.814 384.921 628.517 390.808 624.747C381.999 619.882 371.457 626.714 369.542 628.051C364.579 625.119 359.741 621.98 355.038 618.65C362.516 620.116 370.422 619.334 377.463 616.407C365.719 610.7 356.289 616.398 354.058 617.956C348.309 613.835 342.771 609.419 337.472 604.736C347.284 608.34 357.715 609.456 367.852 606.841C357.861 599.238 339.947 603.478 336.942 604.263C332.843 600.615 328.887 596.808 325.092 592.846L324.136 593.78C328.509 598.25 333.086 602.512 337.841 606.563L337.785 607.419C337.972 615.98 340.649 624.471 345.403 631.579Z" fill="#782540"/>
<path fill-rule="evenodd" clip-rule="evenodd" d="M343.759 600.612C342.877 601.224 341.997 601.911 340.944 602.132C339.892 602.353 338.605 601.927 338.269 600.907C338.042 600.223 338.29 599.454 338.076 598.767C337.511 596.94 334.805 597.397 333.082 598.231C328.065 600.657 323.049 603.085 318.032 605.511C314.399 607.27 307.557 609.196 312.698 613.146C321.152 619.642 330.494 625.197 339.287 631.236C341.062 632.443 342.969 633.697 345.115 633.755C347.265 633.815 349.601 632.112 349.355 629.985C349.174 628.416 347.771 627.328 346.744 626.126C345.717 624.923 345.099 622.901 346.333 621.909C347.791 620.736 349.8 622.341 351.04 623.739C354.186 627.285 357.933 630.302 362.073 632.621C363.896 633.642 365.964 634.555 368.015 634.148C370.066 633.743 371.812 631.431 370.893 629.559C370.093 627.936 367.66 627.11 367.782 625.306C367.859 624.159 369.089 623.366 370.242 623.348C371.397 623.327 372.475 623.871 373.501 624.399C377.452 626.427 381.707 628.471 386.128 628.009C390.547 627.544 394.871 623.448 393.841 619.137C393.086 615.975 389.332 613.891 386.236 614.917C388.525 613.581 388.695 610.014 386.991 607.986C385.286 605.958 382.346 605.334 379.719 605.712C377.093 606.091 374.675 607.31 372.273 608.434C370.922 609.068 369.464 609.69 367.985 609.484C366.506 609.276 365.097 607.882 365.443 606.434C365.632 605.643 366.268 605.049 366.674 604.342C367.808 602.368 366.911 599.699 365.152 598.248C363.393 596.797 361.012 596.342 358.731 596.252C358.42 596.241 358.108 596.234 357.797 596.234C352.819 596.234 347.848 597.779 343.759 600.612Z" fill="url(#paint13_linear_1_2043)"/>
<path fill-rule="evenodd" clip-rule="evenodd" d="M388.572 549.545C385.648 550.341 382.903 552.59 382.452 555.605C381.956 553.475 380.457 551.605 378.492 550.667C374.78 552.915 368.786 560.479 367.378 564.505C368.168 562.004 369.486 553.242 369.486 553.242C369.486 553.242 358.171 555.636 356.952 556.208C346.723 561.032 341.932 575.27 341.932 575.27C348.63 578.86 354.103 585.084 361.537 586.617C367.84 587.914 374.256 585.549 380.26 583.222C377.897 581.697 375.534 580.174 373.172 578.649C376.394 580.253 380.273 580.464 383.647 579.218C387.023 577.973 389.847 575.288 391.274 571.968C389.049 571.009 386.823 570.049 384.598 569.087C386.877 569.396 389.351 569.667 391.339 568.505C394.331 566.756 394.848 562.685 394.873 559.204C394.897 555.723 394.971 551.744 397.599 549.479C395.915 549.272 394.203 549.068 392.509 549.068C391.177 549.068 389.858 549.194 388.572 549.545Z" fill="url(#paint14_linear_1_2043)"/>
<path fill-rule="evenodd" clip-rule="evenodd" d="M346.249 575.734C344.545 575.505 342.855 575.176 341.19 574.749C339.53 574.304 337.871 573.826 336.299 573.134C336.234 573.039 336.249 572.903 336.33 572.823C336.418 572.726 336.553 572.785 336.641 572.823L337.245 573.048L338.462 573.474C339.277 573.746 340.099 573.994 340.929 574.217C342.587 574.664 344.273 575.013 345.974 575.262L345.952 575.27C346.009 575.187 346.137 575.183 346.212 575.229L346.446 575.329L346.439 575.328L348.315 575.513C348.94 575.574 349.564 575.646 350.193 575.667L350.169 575.678C352.051 573.438 354.098 571.334 356.291 569.392C358.495 567.453 360.796 565.662 363.304 564.075C363.569 564.046 363.678 564.405 363.492 564.55L363.032 564.861L362.124 565.478C361.521 565.893 360.928 566.322 360.344 566.761C359.173 567.64 358.036 568.561 356.934 569.522C354.732 571.447 352.675 573.534 350.784 575.761L350.735 575.65C356.28 575.838 361.853 574.913 367.047 572.986L366.999 573.03L369.637 567.783C370.532 566.025 371.361 564.307 372.31 562.517C372.479 562.371 372.702 562.481 372.778 562.622C372.883 562.795 372.761 562.979 372.719 563.059L372.388 563.715L371.729 565.027L370.411 567.65L367.773 572.896L367.628 572.738C372.489 570.857 377.004 568.097 380.88 564.63L380.836 564.717L381.062 561.823L381.176 560.376L381.233 559.654L381.26 559.29C381.289 559.162 381.236 559.08 381.343 558.869C381.471 558.698 381.701 558.669 381.87 558.793C381.956 558.857 382 558.979 381.989 559.07L381.976 559.254L381.919 559.978L381.805 561.424L381.58 564.319L381.335 564.201C382.563 563.069 383.725 561.865 384.811 560.598C385.354 559.963 385.881 559.317 386.387 558.653L387.131 557.647L387.491 557.136L387.581 557.007C387.623 556.947 387.699 556.878 387.789 556.856C387.972 556.814 388.143 556.899 388.225 557.059C388.324 557.248 388.169 557.44 388.13 557.488L387.95 557.747L387.583 558.259L386.83 559.27C386.318 559.936 385.787 560.586 385.236 561.223C384.136 562.494 382.965 563.702 381.725 564.838L381.62 564.603L384.292 564.376L385.628 564.262L386.296 564.205C386.363 564.202 386.384 564.191 386.487 564.194C386.577 564.199 386.684 564.264 386.724 564.351C386.806 564.521 386.754 564.705 386.611 564.815C386.431 564.919 386.329 564.874 386.22 564.899L385.886 564.927L385.219 564.984L383.882 565.097L382.545 565.211L381.877 565.269L381.543 565.297C381.429 565.297 381.344 565.345 381.136 565.273L381.221 565.289L381.15 565.295L381.235 565.264C380.239 566.125 379.235 566.976 378.167 567.747C377.105 568.526 376.009 569.258 374.881 569.938C372.625 571.296 370.241 572.446 367.777 573.378L367.741 573.174L373.763 573.322L376.774 573.395L378.281 573.433C378.549 573.455 378.744 573.413 379.071 573.485C379.244 573.585 379.266 573.808 379.157 573.949C379.103 574.024 379.003 574.066 378.919 574.062L378.729 574.057L372.708 573.909C370.686 573.847 368.724 573.841 366.654 573.731L366.716 573.736C361.488 575.557 355.913 576.379 350.382 576.153L350.408 576.147C350.322 576.187 350.221 576.178 350.142 576.137L350.167 576.143L347.737 575.965L347.764 575.856C351.621 577.467 355.595 578.802 359.644 579.847C361.669 580.369 363.714 580.817 365.772 581.193C366.799 581.383 367.833 581.551 368.868 581.702L370.423 581.913L370.81 581.963C370.952 581.955 371.095 582.097 371.077 582.246C371.087 582.414 370.878 582.496 370.758 582.446L370.37 582.394C362.062 581.338 353.91 579.09 346.249 575.734ZM346.249 575.734C353.918 579.073 362.073 581.302 370.376 582.338L370.765 582.389C370.898 582.426 371.014 582.373 371.017 582.242C371.03 581.954 370.645 582.031 370.415 581.973L368.859 581.763C367.823 581.616 366.788 581.451 365.758 581.263C363.699 580.893 361.652 580.447 359.623 579.929C355.567 578.893 351.586 577.566 347.719 575.961L347.399 575.827L347.748 575.853L350.172 576.024L350.186 576.025L350.198 576.031C350.249 576.057 350.31 576.062 350.359 576.04L350.371 576.033L350.386 576.034C355.904 576.247 361.46 575.414 366.663 573.587L366.727 573.592L378.734 573.873C378.871 573.873 378.989 573.896 379.01 573.837C379.056 573.783 379.038 573.671 378.982 573.649C378.823 573.619 378.506 573.631 378.276 573.621L376.77 573.586L373.759 573.52L367.737 573.385L367.196 573.374L367.701 573.182C370.152 572.247 372.52 571.098 374.762 569.743C375.883 569.063 376.971 568.333 378.024 567.555C379.084 566.786 380.08 565.937 381.068 565.08L381.099 565.053L381.154 565.048L381.18 565.045L381.266 565.062C381.274 565.064 381.413 565.066 381.521 565.049L381.856 565.021L382.524 564.962L383.859 564.846L385.196 564.729L385.863 564.67L386.197 564.641C386.304 564.629 386.447 564.629 386.458 564.606C386.495 564.584 386.513 564.503 386.493 564.472C386.493 564.449 386.461 564.451 386.319 564.465L385.651 564.522L384.316 564.64L381.643 564.873L381.246 564.907L381.539 564.639C382.769 563.507 383.932 562.304 385.021 561.039C385.565 560.406 386.091 559.758 386.599 559.094L387.345 558.09L387.708 557.579C387.803 557.431 388.013 557.168 387.958 557.186C387.882 556.946 387.624 557.526 387.375 557.818L386.627 558.834C386.119 559.503 385.592 560.158 385.043 560.794C383.946 562.067 382.773 563.278 381.534 564.415L381.258 564.666L381.288 564.296L381.521 561.402L381.637 559.955L381.696 559.233L381.71 559.055C381.711 559.025 381.705 559.021 381.694 559.01C381.671 558.984 381.585 558.995 381.572 559.027C381.555 559.029 381.549 559.207 381.539 559.313L381.509 559.674L381.45 560.398L381.335 561.845L381.102 564.738L381.097 564.791L381.058 564.826C377.15 568.306 372.603 571.071 367.711 572.951L367.434 573.057L367.567 572.793L370.217 567.554L371.542 564.934L372.204 563.624C372.373 563.235 372.843 562.578 372.446 562.665L367.157 573.107L367.141 573.138L367.108 573.15C361.89 575.073 356.291 575.987 350.729 575.786L350.587 575.781L350.681 575.673C352.579 573.445 354.647 571.358 356.857 569.434C357.964 568.473 359.104 567.553 360.279 566.677C360.866 566.237 361.461 565.808 362.066 565.394L362.976 564.778L363.427 564.475C363.553 564.39 363.461 564.142 363.32 564.17C360.887 565.72 358.533 567.523 356.342 569.449C354.148 571.384 352.099 573.48 350.213 575.714L350.203 575.726L350.19 575.725C349.561 575.702 348.936 575.627 348.31 575.566L346.433 575.375L346.426 575.374C346.275 575.329 346.098 575.166 345.989 575.299L345.981 575.31L345.967 575.309C344.265 575.055 342.579 574.703 340.919 574.251C340.09 574.026 339.267 573.776 338.453 573.503L337.236 573.074L336.633 572.847C336.538 572.806 336.424 572.757 336.347 572.84C336.275 572.911 336.26 573.037 336.317 573.12C337.866 573.8 339.541 574.293 341.193 574.736C342.856 575.169 344.545 575.502 346.249 575.734Z" fill="#782540"/>
<path fill-rule="evenodd" clip-rule="evenodd" d="M316.511 610.421C331.094 596.644 345.79 581.514 365.132 576.301C344.008 573.282 322.301 577.433 304.188 587.955C295.202 593.174 287.123 599.95 280.295 607.879C275.89 612.996 264.985 624.26 267.266 632.114C272.479 650.066 310.826 615.792 316.511 610.421Z" fill="#FC88AE"/>
<path fill-rule="evenodd" clip-rule="evenodd" d="M339.277 583.852C324.47 590.178 310.551 598.561 298 608.628C291.727 613.664 285.776 619.105 280.256 624.953C277.506 627.886 274.82 630.881 272.268 633.985L270.363 636.321L269.886 636.905L269.773 637.045C269.785 637.037 269.791 636.998 269.784 636.987C269.777 636.974 269.781 636.972 269.747 636.956C269.712 636.933 269.617 636.975 269.626 636.985L270.567 635.803C271.83 634.233 273.118 632.681 274.431 631.153C279.663 625.017 285.399 619.313 291.473 614.012C297.552 608.716 303.955 603.784 310.709 599.38C317.454 594.968 324.475 590.976 331.759 587.53C339.043 584.088 346.555 581.137 354.227 578.703L354.195 578.757L354.109 578.377L354.169 578.41C349.127 579.999 344.155 581.809 339.277 583.852ZM339.277 583.852C344.143 581.782 349.106 579.941 354.14 578.321L354.188 578.307L354.2 578.354L354.288 578.737L354.298 578.779L354.255 578.791C346.6 581.269 339.114 584.262 331.859 587.741C324.606 591.224 317.619 595.251 310.914 599.692C297.515 608.6 285.392 619.383 274.857 631.519C273.539 633.036 272.247 634.574 270.978 636.133L270.033 637.307C269.966 637.416 269.734 637.519 269.578 637.447C269.424 637.391 269.339 637.283 269.291 637.152C269.244 637.023 269.273 636.848 269.36 636.74L269.485 636.587L269.965 636.004L271.889 633.671C274.466 630.573 277.177 627.588 279.951 624.664C285.518 618.834 291.512 613.416 297.825 608.408C310.455 598.399 324.433 590.092 339.277 583.852Z" fill="#782540"/>
<path fill-rule="evenodd" clip-rule="evenodd" d="M281.216 612.111C276.594 614.132 246.591 628.258 255.988 635.896C260.1 639.238 269.538 635.605 273.686 634.279C280.118 632.227 286.174 629.139 291.529 625.117C302.323 617.012 310.219 605.16 313.694 591.842C305.757 602.018 293.069 606.926 281.216 612.111Z" fill="url(#paint15_linear_1_2043)"/>
<path fill-rule="evenodd" clip-rule="evenodd" d="M302.881 605.037C295.533 612.304 287.174 618.535 278.138 623.534C273.618 626.032 268.934 628.236 264.112 630.084C261.698 630.998 259.263 631.86 256.793 632.614L254.939 633.173L254.476 633.312L254.351 633.349C254.241 633.38 254.092 633.344 254.008 633.264C253.923 633.184 253.868 633.084 253.873 632.942C253.868 632.794 254.031 632.637 254.136 632.624L255.062 632.357C256.296 631.996 257.523 631.613 258.743 631.211C268.505 628.003 277.885 623.561 286.465 617.851C295.059 612.163 302.845 605.243 309.566 597.392L309.595 597.36L309.629 597.385L309.833 597.534L309.873 597.564L309.841 597.602C307.634 600.185 305.314 602.67 302.881 605.037ZM302.881 605.037C305.291 602.648 307.589 600.143 309.771 597.542L309.779 597.61L309.576 597.462L309.637 597.454C302.981 605.372 295.243 612.379 286.673 618.163C282.402 621.078 277.903 623.648 273.27 625.934C268.634 628.215 263.846 630.203 258.916 631.75C257.685 632.143 256.449 632.515 255.207 632.867L254.275 633.128C254.301 633.133 254.396 633.045 254.39 632.979C254.39 632.919 254.374 632.898 254.348 632.873C254.325 632.848 254.262 632.833 254.23 632.843L254.338 632.813L254.8 632.679L256.652 632.14C259.116 631.411 261.549 630.576 263.963 629.686C268.784 627.89 273.472 625.736 278.004 623.287C287.062 618.382 295.468 612.237 302.881 605.037Z" fill="#782540"/>
<path fill-rule="evenodd" clip-rule="evenodd" d="M264.403 602.636C261.117 606.097 240.146 629.442 251.121 632.706C255.922 634.134 262.816 627.502 265.945 624.824C270.797 620.674 274.942 615.754 278.136 610.272C284.575 599.222 287.121 585.946 285.283 573C282.089 584.822 272.831 593.762 264.403 602.636Z" fill="url(#paint16_linear_1_2043)"/>
<path fill-rule="evenodd" clip-rule="evenodd" d="M279.946 589.145C276.139 598.177 271.065 606.678 264.944 614.353C261.882 618.19 258.568 621.83 255.001 625.212C253.213 626.895 251.385 628.54 249.489 630.103L248.061 631.272L247.705 631.564L247.609 631.641C247.52 631.711 247.371 631.736 247.264 631.695C247.156 631.656 247.069 631.587 247.02 631.457C246.958 631.324 247.049 631.118 247.14 631.068L247.856 630.495C248.808 629.727 249.749 628.944 250.675 628.145C258.087 621.766 264.716 614.457 270.179 606.333C275.663 598.224 279.984 589.337 283.032 580.028L283.045 579.987L283.086 579.997L283.319 580.052L283.369 580.064L283.354 580.111C282.356 583.172 281.22 586.189 279.946 589.145ZM279.946 589.145C281.193 586.178 282.297 583.152 283.267 580.083L283.3 580.143L283.066 580.089L283.122 580.057C280.16 589.403 275.915 598.35 270.493 606.542C267.8 610.648 264.784 614.541 261.543 618.236C258.298 621.924 254.814 625.417 251.042 628.574C250.104 629.368 249.152 630.146 248.187 630.908L247.461 631.476C247.49 631.47 247.544 631.35 247.513 631.29C247.488 631.232 247.465 631.219 247.43 631.204C247.395 631.19 247.33 631.2 247.302 631.225L247.386 631.159L247.744 630.871L249.175 629.723C251.077 628.184 252.912 626.564 254.709 624.903C258.296 621.571 261.633 617.972 264.724 614.177C270.902 606.579 276.052 598.14 279.946 589.145Z" fill="#782540"/>
</g>
<defs>
<linearGradient id="paint0_linear_1_2043" x1="2541.49" y1="384.849" x2="2283.08" y2="1249.5" gradientUnits="userSpaceOnUse">
<stop stop-color="#6FB9FF"/>
<stop offset="0.493931" stop-color="#8293FE"/>
<stop offset="1" stop-color="#7464EB"/>
</linearGradient>
<linearGradient id="paint1_linear_1_2043" x1="728.54" y1="794.678" x2="1485.88" y2="270.611" gradientUnits="userSpaceOnUse">
<stop stop-color="#F9FBFE" stop-opacity="0.01"/>
<stop offset="1" stop-color="#C2D7F3"/>
</linearGradient>
<linearGradient id="paint2_linear_1_2043" x1="457.092" y1="759.692" x2="1058.87" y2="396.374" gradientUnits="userSpaceOnUse">
<stop stop-color="#F9FBFE" stop-opacity="0.01"/>
<stop offset="1" stop-color="#C2D7F3"/>
</linearGradient>
<linearGradient id="paint3_linear_1_2043" x1="-19.6923" y1="748.503" x2="680.134" y2="272.599" gradientUnits="userSpaceOnUse">
<stop stop-color="#F9FBFE" stop-opacity="0.01"/>
<stop offset="1" stop-color="#C2D7F3"/>
</linearGradient>
<linearGradient id="paint4_linear_1_2043" x1="1458.56" y1="152.312" x2="1458.56" y2="612.564" gradientUnits="userSpaceOnUse">
<stop stop-color="white"/>
<stop offset="1" stop-color="white" stop-opacity="0.01"/>
</linearGradient>
<linearGradient id="paint5_linear_1_2043" x1="208.525" y1="605.854" x2="181.443" y2="535.119" gradientUnits="userSpaceOnUse">
<stop stop-color="#F05D5D"/>
<stop offset="1" stop-color="#E60B8E"/>
</linearGradient>
<linearGradient id="paint6_linear_1_2043" x1="277.662" y1="579.47" x2="324.199" y2="478.089" gradientUnits="userSpaceOnUse">
<stop stop-color="#F05D5D"/>
<stop offset="1" stop-color="#E60B8E"/>
</linearGradient>
<linearGradient id="paint7_linear_1_2043" x1="266.886" y1="659.263" x2="321.885" y2="593.599" gradientUnits="userSpaceOnUse">
<stop stop-color="#950760"/>
<stop offset="1" stop-color="#FFA0CA"/>
</linearGradient>
<linearGradient id="paint8_linear_1_2043" x1="294.522" y1="656.864" x2="338.188" y2="579.4" gradientUnits="userSpaceOnUse">
<stop stop-color="#950760"/>
<stop offset="1" stop-color="#FFA0CA"/>
</linearGradient>
<linearGradient id="paint9_linear_1_2043" x1="153.312" y1="606.952" x2="108.012" y2="593.531" gradientUnits="userSpaceOnUse">
<stop stop-color="#F05D5D"/>
<stop offset="1" stop-color="#E60B8E"/>
</linearGradient>
<linearGradient id="paint10_linear_1_2043" x1="141.688" y1="555.658" x2="85.9438" y2="516.645" gradientUnits="userSpaceOnUse">
<stop stop-color="#F05D5D"/>
<stop offset="1" stop-color="#E60B8E"/>
</linearGradient>
<linearGradient id="paint11_linear_1_2043" x1="234.543" y1="609.223" x2="189.31" y2="574.696" gradientUnits="userSpaceOnUse">
<stop stop-color="#950760"/>
<stop offset="1" stop-color="#FFA0CA"/>
</linearGradient>
<linearGradient id="paint12_linear_1_2043" x1="237.175" y1="598.905" x2="190.517" y2="578.964" gradientUnits="userSpaceOnUse">
<stop stop-color="#950760"/>
<stop offset="1" stop-color="#FFA0CA"/>
</linearGradient>
<linearGradient id="paint13_linear_1_2043" x1="319.995" y1="629.113" x2="365.363" y2="615.648" gradientUnits="userSpaceOnUse">
<stop stop-color="#F05D5D"/>
<stop offset="1" stop-color="#E60B8E"/>
</linearGradient>
<linearGradient id="paint14_linear_1_2043" x1="357.347" y1="601.679" x2="413.043" y2="562.797" gradientUnits="userSpaceOnUse">
<stop stop-color="#F05D5D"/>
<stop offset="1" stop-color="#E60B8E"/>
</linearGradient>
<linearGradient id="paint15_linear_1_2043" x1="266.21" y1="652.91" x2="311.471" y2="618.272" gradientUnits="userSpaceOnUse">
<stop stop-color="#950760"/>
<stop offset="1" stop-color="#FFA0CA"/>
</linearGradient>
<linearGradient id="paint16_linear_1_2043" x1="257.967" y1="661.64" x2="304.625" y2="641.698" gradientUnits="userSpaceOnUse">
<stop stop-color="#950760"/>
<stop offset="1" stop-color="#FFA0CA"/>
</linearGradient>
</defs>
</svg>
